# xmcd
#
# Track frame offsets:
# 150
# 12521
# 25241
# 41728
# 55701
# 66480
# 79765
# 90967
# 106142
# 121890
#
# Disc length: 1897 seconds
#
#
# Revision: 0
# Processed by: cddbd v1.5.2PL0 Copyright (c) Steve Scherf et al.
# Submitted via: FreeRIP 2.942 
#
DISCID=7707670a
DTITLE=$1,000 wedding - exile on dame street
DYEAR=2002
DGENRE=Country
TTITLE0=outstanding
TTITLE1=wouldsheholdmetighterifsheloevedme?
TTITLE2=i know what i like
TTITLE3=draining the bar for you
TTITLE4=younger and prettier
TTITLE5=paradise of lies
TTITLE6=jesus and jack daniels
TTITLE7=on the beach
TTITLE8=another country song
TTITLE9=ghost track
EXTD=http://www.myspace.com/1000wedding
EXTT0=
EXTT1=
EXTT2=
EXTT3=
EXTT4=
EXTT5=
EXTT6=
EXTT7=
EXTT8=
EXTT9=
PLAYORDER=
